OpenSim_Sub10_CSBaseline_LCS.mot
version=1
nRows=70
nColumns=11
inDegrees=no
endheader
time	Bot_Shank	2nd_Bot_Shank	2nd_Top_Shank	Top_Shank	Bot_Thigh	Med_Thigh	Top_Thigh	BNOx	BNOy	BNOZ
68.33000000	10269.49067539	10061.66130991	10551.44613644	10528.00518065	12900.56524707	14253.78275217	14740.78525015	176.12657674	-77.67587040	-114.07456830
68.34000000	10267.22062393	10083.74981123	10576.35468319	10551.24841216	12915.61834904	14249.58415252	14732.68673679	174.60427375	-76.62787439	-124.53469135
68.35000000	10265.44252624	10111.15239001	10604.94214302	10579.11542323	12933.66072433	14240.87870995	14721.61196808	173.16213523	-75.57469110	-127.61055502
68.36000000	10264.19865658	10142.52017060	10636.13915982	10610.59925817	12953.70759426	14228.59427626	14708.10415049	171.80762797	-74.57140148	-125.07980211
68.37000000	10263.53128918	10176.50427734	10668.87637750	10644.69296134	12974.77418013	14213.65870321	14692.70649053	170.54821873	-73.67308648	-118.72007541
68.38000000	10263.48269830	10211.75583455	10702.08443994	10680.38957703	12995.87570324	14196.99984258	14675.96219469	169.39137432	-72.93482706	-110.30901774
68.39000000	10264.09515818	10246.92596658	10734.69399105	10716.68214959	13016.02738491	14179.54554615	14658.41446947	168.34456151	-72.41170416	-101.62427188
68.40000000	10265.41094308	10280.66579777	10765.63567472	10752.56372334	13034.24444645	14162.22366570	14640.60652137	167.41524708	-72.15879874	-94.44348065
68.41000000	10267.47232723	10311.62645244	10793.84013484	10787.02734261	13049.54210915	14145.96205300	14623.08155688	166.61089782	-72.23119174	-90.54428685
68.42000000	10270.32154580	10338.45936126	10818.23825579	10819.06619481	13060.93578002	14131.68834561	14606.38268860	165.93898442	-72.68393783	-91.70375035
68.43000000	10273.94896610	10360.22243571	10838.08002850	10847.86335699	13067.68726687	14120.04589759	14590.92842400	165.41216558	-73.53720711	-98.92539104
68.44000000	10278.19083719	10377.18138981	10853.56362568	10873.16613733	13069.79052406	14110.83335336	14576.76702335	165.05851551	-74.70751497	-110.91425997
68.45000000	10282.85491401	10389.82524166	10865.06252424	10894.82616168	13067.37486858	14103.69318353	14563.87829389	164.90895848	-76.09221264	-125.95045666
68.46000000	10287.74895152	10398.64300937	10872.95020111	10912.69505587	13060.56961742	14098.26785870	14552.24204290	164.99441878	-77.58865134	-142.31408065
68.47000000	10292.68070467	10404.12371103	10877.60013320	10926.62444576	13049.50408757	14094.19984946	14541.83807763	165.34582067	-79.09418229	-158.28523148
68.48000000	10297.45792844	10406.75636476	10879.38579743	10936.46595718	13034.30759601	14091.13162642	14532.64620535	165.99408846	-80.50615672	-172.14400867
68.49000000	10301.88837776	10407.02998866	10878.68067072	10942.07121597	13015.10945973	14088.70566018	14524.64623330	166.97014641	-81.72192586	-182.17051176
68.50000000	10305.77980760	10405.43360083	10875.85822997	10943.29184799	12992.03899572	14086.56442134	14517.81796876	168.30491882	-82.63884093	-186.64484028
68.51000000	10308.93997292	10402.45621938	10871.29195212	10939.97947907	12965.22552097	14084.35038051	14512.14121898	170.02932995	-83.15425315	-183.84709376
68.52000000	10311.17667094	10398.58681138	10865.35529848	10931.98593968	12934.79852227	14081.70609427	14507.59577527	172.17429533	-83.16553995	-172.05803511
68.53000000	10312.35380263	10394.24660592	10858.40102724	10919.43459435	12901.11282106	14078.38822809	14504.14026364	174.75910660	-82.60484350	-150.43872765
68.54000000	10312.50197355	10389.65555805	10850.72038009	10903.25563415	12865.19279001	14074.49250643	14501.67042025	177.76851660	-81.50760476	-120.76592760
68.55000000	10311.68261038	10384.99641030	10842.59322526	10884.52841996	12828.18659151	14070.17734055	14500.07035393	181.18089247	-79.92836302	-85.29999252
68.56000000	10309.95713978	10380.45190524	10834.29943099	10864.33231266	12791.24238795	14065.60114169	14499.22417349	184.97460136	-77.92165755	-46.30128000
68.57000000	10307.38698844	10376.20478541	10826.11886552	10843.74667313	12755.50834171	14060.92232112	14499.01598773	189.12801043	-75.54202765	-6.03014761
68.58000000	10304.03358302	10372.43779336	10818.33139707	10823.85086225	12722.13261518	14056.29929007	14499.32990547	193.61948681	-72.84401261	33.25304708
68.59000000	10299.95835019	10369.33367165	10811.21689388	10805.72424090	12692.26337075	14051.89045980	14500.05003553	198.42739767	-69.88215172	69.28794651
68.60000000	10295.22271664	10367.07516281	10805.05522419	10790.44616995	12667.04877080	14047.85424156	14501.06048672	203.53011014	-66.71098428	99.81419308
68.61000000	10289.88845806	10365.84453553	10800.12563917	10779.09354554	12647.63411033	14044.34888549	14502.24542364	208.90583950	-63.38507972	122.57649084
68.62000000	10284.09134426	10365.72359926	10796.57657456	10772.22073649	12634.55679621	14041.49848286	14503.50084019	214.50060363	-59.96540130	136.39260533
68.63000000	10278.13223562	10366.57002557	10794.26459957	10769.21628421	12626.99795660	14039.35091213	14504.74912289	220.18858378	-56.52717765	142.47444398
68.64000000	10272.33433038	10368.21115874	10793.00679197	10769.31098600	12623.95520627	14037.94373962	14505.91622940	225.83424122	-53.14756763	142.35785734
68.65000000	10267.02082677	10370.47434303	10792.62022952	10771.73563920	12624.42616002	14037.31453168	14506.92811734	231.30203725	-49.90373007	137.57869593
68.66000000	10262.51492304	10373.18692271	10792.92198996	10775.72104111	12627.40843260	14037.50085465	14507.71074437	236.45643313	-46.87282383	129.67281030
68.67000000	10259.13981742	10376.17624204	10793.72915107	10780.49798904	12631.89963880	14038.54027486	14508.19006812	241.16189015	-44.13200775	120.17605099
68.68000000	10257.21870814	10379.26964529	10794.85879060	10785.29728031	12636.89739339	14040.47035865	14508.29204623	245.28286959	-41.75844068	110.62426853
68.69000000	10257.07467447	10382.29449870	10796.12801593	10789.34987656	12641.39950793	14043.32863154	14507.94267009	248.68387115	-39.82925917	102.55298552
68.70000000	10258.87292972	10385.10732634	10797.39322696	10792.10478280	12644.66493021	14047.09845205	14507.11270698	251.28038759	-38.39201857	97.06254221
68.71000000	10262.30960991	10387.65129085	10798.62757613	10793.65889034	12646.72853878	14051.60222882	14505.90596976	253.13943051	-37.40637771	93.96019371
68.72000000	10266.99412594	10389.88557299	10799.82580159	10794.22887470	12647.76866987	14056.63261333	14504.45086931	254.35602505	-36.81574473	92.81412361
68.73000000	10272.53588866	10391.76935352	10800.98264148	10794.03141140	12647.96365968	14061.98225707	14502.87581655	255.02519635	-36.56352774	93.19251550
68.74000000	10278.54430897	10393.26181320	10802.09283396	10793.28317595	12647.49184443	14067.44381153	14501.30922239	255.24196953	-36.59313486	94.66355297
68.75000000	10284.62879772	10394.32213280	10803.15111719	10792.20084386	12646.53156033	14072.80992819	14499.87949773	255.10136972	-36.84797422	96.79541959
68.76000000	10290.39876581	10394.90949307	10804.15222931	10791.00109064	12645.26114359	14077.87325853	14498.71505347	254.69842205	-37.27145394	99.15629895
68.77000000	10295.46371124	10394.98309877	10805.09091012	10789.90055067	12643.85891483	14082.42650127	14497.94426906	254.12813775	-37.80699068	101.31445887
68.78000000	10299.54876891	10394.53397822	10805.96408682	10789.06125489	12642.48249612	14086.32501937	14497.65376307	253.46708290	-38.40933793	102.94994912
68.79000000	10302.72267297	10393.64771925	10806.77518613	10788.48298764	12641.22800666	14089.61037405	14497.80606743	252.73701624	-39.06693504	104.07496426
68.80000000	10305.11768378	10392.42739226	10807.52883643	10788.13553634	12640.18019471	14092.35855177	14498.34077234	251.94956353	-39.77444934	104.76310735
68.81000000	10306.86606170	10390.97606765	10808.22966612	10787.98868842	12639.42380851	14094.64553895	14499.19746797	251.11635051	-40.52654815	105.08798143
68.82000000	10308.10006710	10389.39681582	10808.88230357	10788.01223130	12639.04359632	14096.54732204	14500.31574454	250.24900291	-41.31789881	105.12318953
68.83000000	10308.95196034	10387.79270719	10809.49137717	10788.17595242	12639.12430640	14098.13988747	14501.63519223	249.35914648	-42.14316864	104.94233471
68.84000000	10309.55400177	10386.26681216	10810.06151531	10788.44963920	12639.75068700	14099.49922169	14503.09540125	248.45840696	-42.99702499	104.61902000
68.85000000	10310.03845177	10384.92220114	10810.59734637	10788.80307907	12641.00748637	14100.70131113	14504.63596178	247.55841009	-43.87413518	104.22684844
68.86000000	10310.53757068	10383.86194452	10811.10349874	10789.20605946	12642.97945278	14101.82214222	14506.19646403	246.67078161	-44.76916654	103.83942309
68.87000000	10311.18361889	10383.18911272	10811.58460080	10789.62836780	12645.75133447	14102.93770141	14507.71649818	245.80714726	-45.67678640	103.53034698
68.88000000	10312.10881584	10383.00674254	10812.04527958	10790.03980058	12649.40782554	14104.12395188	14509.13567275	244.97913032	-46.59166209	103.37320616
68.89000000	10313.39111122	10383.37329003	10812.48836641	10790.42219393	12653.96173572	14105.42598442	14510.41789293	244.19509588	-47.50844247	103.41903230
68.90000000	10314.94719935	10384.21474554	10812.91135684	10790.79315807	12659.21228022	14106.79715684	14511.59925822	243.45372768	-48.42172164	103.65183980
68.91000000	10316.66396097	10385.43260855	10813.31075997	10791.17691730	12664.91918393	14108.17386690	14512.72921575	242.75191952	-49.32608355	104.04325261
68.92000000	10318.42827678	10386.92837857	10813.68308486	10791.59769594	12670.84217171	14109.49251238	14513.85721264	242.08656523	-50.21611215	104.56489466
68.93000000	10320.12702751	10388.60355507	10814.02484059	10792.07971828	12676.74096843	14110.68949103	14515.03269600	241.45455862	-51.08639142	105.18838992
68.94000000	10321.64709388	10390.35963754	10814.33253625	10792.64720862	12682.37529896	14111.70120064	14516.30511297	240.85279350	-51.93150530	105.88536230
68.95000000	10322.87535659	10392.09812547	10814.60268090	10793.32439128	12687.50488818	14112.46403896	14517.72391065	240.27816368	-52.74603774	106.62743577
68.96000000	10323.69869638	10393.72051835	10814.83178363	10794.13549056	12691.88946096	14112.91440377	14519.33853618	239.72756299	-53.52457272	107.38623427
68.97000000	10324.00404406	10395.12833896	10815.01635407	10795.10469187	12695.28886215	14112.98871544	14521.19842998	239.19788569	-54.26169475	108.13338646
68.98000000	10323.74481288	10396.25402122	10815.15363358	10796.20458086	12697.62216240	14112.65339713	14523.34415761	238.68663474	-54.95273763	108.84679200
68.99000000	10323.07195965	10397.12184729	10815.24303781	10797.25442148	12699.28155012	14111.96402112	14525.78991417	238.19312170	-55.59526156	109.52298394
69	10322.17296392	10397.77308067	10815.28438438	10798.04513084	12700.74668592	14110.99264203	14528.54501924	237.71699254	-56.18723839	110.16194034
69.01000000	10321.23530524	10398.24898484	10815.27749093	10798.36762606	12702.49723038	14109.81131444	14531.61879242	237.25789319	-56.72663994	110.76363929
69.02000000	10320.44646316	10398.59082331	10815.22217509	10798.01282427	12705.01284411	14108.49209297	14535.02055330	236.81546961	-57.21143804	111.32805885
